<svg xmlns="http://www.w3.org/2000/svg" xmlns:xlink="http://www.w3.org/1999/xlink" width="480" zoomAndPan="magnify" viewBox="0 0 360 157.92" height="200" preserveAspectRatio="xMidYMid meet" version="1.0"><defs><g/><clipPath id="a71f9477d8"><rect x="0" width="102" y="0" height="133"/></clipPath><clipPath id="07b055b215"><path d="M 233.765625 21.992188 L 245.9375 21.992188 L 245.9375 29.539062 L 233.765625 29.539062 Z M 233.765625 21.992188 " clip-rule="nonzero"/></clipPath><clipPath id="77d1231234"><path d="M 0.765625 0.992188 L 12.9375 0.992188 L 12.9375 8.539062 L 0.765625 8.539062 Z M 0.765625 0.992188 " clip-rule="nonzero"/></clipPath><clipPath id="8611a9c1c8"><rect x="0" width="13" y="0" height="9"/></clipPath><clipPath id="04c26bcf01"><rect x="0" width="111" y="0" height="113"/></clipPath><clipPath id="45ab3e2346"><path d="M 318.617188 21.992188 L 330.785156 21.992188 L 330.785156 37.089844 L 318.617188 37.089844 Z M 318.617188 21.992188 " clip-rule="nonzero"/></clipPath><clipPath id="b8203087d6"><path d="M 0.617188 0.992188 L 12.785156 0.992188 L 12.785156 16.089844 L 0.617188 16.089844 Z M 0.617188 0.992188 " clip-rule="nonzero"/></clipPath><clipPath id="8b8ef92ae2"><rect x="0" width="13" y="0" height="17"/></clipPath><clipPath id="7ea76693ac"><path d="M 290 10 L 359.90625 10 L 359.90625 123 L 290 123 Z M 290 10 " clip-rule="nonzero"/></clipPath><clipPath id="6188b011aa"><rect x="0" width="70" y="0" height="113"/></clipPath><clipPath id="161316c286"><path d="M 7 0 L 158 0 L 158 149.925781 L 7 149.925781 Z M 7 0 " clip-rule="nonzero"/></clipPath><clipPath id="16647ca731"><rect x="0" width="151" y="0" height="150"/></clipPath><clipPath id="7c2559eb46"><path d="M 0.0898438 3.625 L 224.46875 3.625 L 224.46875 12.296875 L 0.0898438 12.296875 Z M 0.0898438 3.625 " clip-rule="nonzero"/></clipPath><clipPath id="818cbbcf86"><path d="M 0.0898438 0.625 L 224.46875 0.625 L 224.46875 9.296875 L 0.0898438 9.296875 Z M 0.0898438 0.625 " clip-rule="nonzero"/></clipPath><clipPath id="86ac46d58c"><rect x="0" width="225" y="0" height="10"/></clipPath><clipPath id="4a22df5cfd"><path d="M 336.859375 3.625 L 359.90625 3.625 L 359.90625 12.296875 L 336.859375 12.296875 Z M 336.859375 3.625 " clip-rule="nonzero"/></clipPath><clipPath id="6e1ef15263"><path d="M 0.859375 0.625 L 23.90625 0.625 L 23.90625 9.296875 L 0.859375 9.296875 Z M 0.859375 0.625 " clip-rule="nonzero"/></clipPath><clipPath id="6b294efb1f"><rect x="0" width="24" y="0" height="10"/></clipPath><clipPath id="eb925c1b35"><path d="M 336.859375 3.625 L 359.253906 3.625 L 359.253906 12.296875 L 336.859375 12.296875 Z M 336.859375 3.625 " clip-rule="nonzero"/></clipPath><clipPath id="6a8a2714aa"><path d="M 0.859375 0.625 L 23.253906 0.625 L 23.253906 9.296875 L 0.859375 9.296875 Z M 0.859375 0.625 " clip-rule="nonzero"/></clipPath><clipPath id="86c6559ca8"><rect x="0" width="24" y="0" height="10"/></clipPath></defs><g transform="matrix(1, 0, 0, 1, 232, 0.000000000000004653)"><g clip-path="url(#a71f9477d8)"><g fill="#ffffff" fill-opacity="1"><g transform="translate(1.569948, 98.750496)"><g><path d="M 96.5 -71.09375 L 91.46875 -71.09375 C 91.226562 -74.613281 90.65625 -77.554688 89.75 -79.921875 C 88.851562 -82.296875 87.566406 -84.160156 85.890625 -85.515625 C 84.210938 -86.867188 82.101562 -87.832031 79.5625 -88.40625 C 77.019531 -88.976562 73.988281 -89.265625 70.46875 -89.265625 C 67.445312 -89.265625 65.015625 -89.203125 63.171875 -89.078125 C 61.328125 -88.953125 59.914062 -88.722656 58.9375 -88.390625 C 57.957031 -88.066406 57.320312 -87.679688 57.03125 -87.234375 C 56.75 -86.785156 56.609375 -86.191406 56.609375 -85.453125 L 56.609375 -19.765625 C 56.609375 -17.148438 56.789062 -14.898438 57.15625 -13.015625 C 57.519531 -11.128906 58.253906 -9.59375 59.359375 -8.40625 C 60.460938 -7.21875 62.054688 -6.316406 64.140625 -5.703125 C 66.234375 -5.085938 69 -4.742188 72.4375 -4.671875 L 72.4375 0 L 26.03125 0 L 26.03125 -4.671875 C 29.46875 -4.742188 32.25 -5.085938 34.375 -5.703125 C 36.507812 -6.316406 38.128906 -7.21875 39.234375 -8.40625 C 40.335938 -9.59375 41.070312 -11.128906 41.4375 -13.015625 C 41.800781 -14.898438 41.984375 -17.148438 41.984375 -19.765625 L 41.984375 -85.453125 C 41.984375 -86.191406 41.835938 -86.785156 41.546875 -87.234375 C 41.265625 -87.679688 40.691406 -88.066406 39.828125 -88.390625 C 38.972656 -88.722656 37.769531 -88.953125 36.21875 -89.078125 C 34.664062 -89.203125 32.578125 -89.265625 29.953125 -89.265625 C 26.765625 -89.265625 23.796875 -89.140625 21.046875 -88.890625 C 18.304688 -88.648438 15.929688 -87.9375 13.921875 -86.75 C 11.921875 -85.5625 10.304688 -83.738281 9.078125 -81.28125 C 7.859375 -78.820312 7.207031 -75.425781 7.125 -71.09375 L 2.578125 -71.09375 L 2.578125 -94.546875 L 95.28125 -94.546875 Z M 96.5 -71.09375 "/></g></g></g></g></g><g clip-path="url(#07b055b215)"><g transform="matrix(1, 0, 0, 1, 233, 21)"><g clip-path="url(#8611a9c1c8)"><g clip-path="url(#77d1231234)"></g></g></g></g><g transform="matrix(1, 0, 0, 1, 146, 10)"><g clip-path="url(#04c26bcf01)"><g fill="#ffffff" fill-opacity="1"><g transform="translate(1.075033, 87.693722)"><g><path d="M 62.03125 0.890625 L 19.578125 -55.0625 L 19.21875 -55.0625 L 19.21875 -16.890625 C 19.21875 -13.910156 19.320312 -11.554688 19.53125 -9.828125 C 19.738281 -8.097656 20.15625 -6.753906 20.78125 -5.796875 C 21.40625 -4.847656 22.296875 -4.222656 23.453125 -3.921875 C 24.617188 -3.628906 26.15625 -3.453125 28.0625 -3.390625 L 28.0625 0 L 4.015625 0 L 4.015625 -3.390625 C 6.109375 -3.453125 7.796875 -3.644531 9.078125 -3.96875 C 10.359375 -4.300781 11.351562 -4.914062 12.0625 -5.8125 C 12.78125 -6.707031 13.257812 -7.972656 13.5 -9.609375 C 13.738281 -11.242188 13.859375 -13.460938 13.859375 -16.265625 L 13.859375 -52.5625 C 13.859375 -55.0625 13.753906 -57.128906 13.546875 -58.765625 C 13.335938 -60.410156 12.921875 -61.707031 12.296875 -62.65625 C 11.671875 -63.613281 10.757812 -64.285156 9.5625 -64.671875 C 8.375 -65.054688 6.828125 -65.3125 4.921875 -65.4375 L 4.921875 -68.828125 L 22.609375 -68.828125 L 61.671875 -16.71875 L 62.03125 -16.71875 L 62.03125 -51.9375 C 62.03125 -54.851562 61.925781 -57.191406 61.71875 -58.953125 C 61.507812 -60.710938 61.09375 -62.066406 60.46875 -63.015625 C 59.84375 -63.972656 58.945312 -64.597656 57.78125 -64.890625 C 56.625 -65.191406 55.09375 -65.375 53.1875 -65.4375 L 53.1875 -68.828125 L 77.234375 -68.828125 L 77.234375 -65.4375 C 75.148438 -65.375 73.46875 -65.175781 72.1875 -64.84375 C 70.90625 -64.519531 69.90625 -63.910156 69.1875 -63.015625 C 68.46875 -62.117188 67.988281 -60.835938 67.75 -59.171875 C 67.519531 -57.503906 67.40625 -55.300781 67.40625 -52.5625 L 67.40625 0.890625 Z M 62.03125 0.890625 "/></g></g></g><g fill="#ffffff" fill-opacity="1"><g transform="translate(75.165571, 87.693722)"><g><path d="M 23.234375 -16.890625 C 23.234375 -13.910156 23.351562 -11.554688 23.59375 -9.828125 C 23.832031 -8.097656 24.296875 -6.753906 24.984375 -5.796875 C 25.671875 -4.847656 26.65625 -4.222656 27.9375 -3.921875 C 29.21875 -3.628906 30.898438 -3.453125 32.984375 -3.390625 L 32.984375 0 L 4.015625 0 L 4.015625 -3.390625 C 6.109375 -3.453125 7.796875 -3.644531 9.078125 -3.96875 C 10.359375 -4.300781 11.351562 -4.914062 12.0625 -5.8125 C 12.78125 -6.707031 13.257812 -7.972656 13.5 -9.609375 C 13.738281 -11.242188 13.859375 -13.460938 13.859375 -16.265625 L 13.859375 -52.5625 C 13.859375 -55.0625 13.753906 -57.128906 13.546875 -58.765625 C 13.335938 -60.410156 12.921875 -61.707031 12.296875 -62.65625 C 11.671875 -63.613281 10.757812 -64.285156 9.5625 -64.671875 C 8.375 -65.054688 6.828125 -65.3125 4.921875 -65.4375 L 4.921875 -68.828125 L 32.09375 -68.828125 L 32.09375 -65.4375 C 30.1875 -65.375 28.648438 -65.132812 27.484375 -64.71875 C 26.328125 -64.300781 25.4375 -63.597656 24.8125 -62.609375 C 24.1875 -61.628906 23.765625 -60.273438 23.546875 -58.546875 C 23.335938 -56.816406 23.234375 -54.613281 23.234375 -51.9375 Z M 23.234375 -16.890625 "/></g></g></g></g></g><g clip-path="url(#45ab3e2346)"><g transform="matrix(1, 0, 0, 1, 318, 21)"><g clip-path="url(#8b8ef92ae2)"><g clip-path="url(#b8203087d6)"></g></g></g></g><g clip-path="url(#7ea76693ac)"><g transform="matrix(1, 0, 0, 1, 290, 10)"><g clip-path="url(#6188b011aa)"><g fill="#ffffff" fill-opacity="1"><g transform="translate(2.170498, 87.692183)"><g><path d="M 10.1875 -57.75 C 9.289062 -59.300781 8.457031 -60.566406 7.6875 -61.546875 C 6.914062 -62.523438 6.125 -63.3125 5.3125 -63.90625 C 4.507812 -64.507812 3.660156 -64.914062 2.765625 -65.125 C 1.878906 -65.332031 0.804688 -65.4375 -0.453125 -65.4375 L -0.453125 -68.828125 L 27.71875 -68.828125 L 27.71875 -65.4375 C 24.726562 -65.4375 22.625 -65.210938 21.40625 -64.765625 C 20.1875 -64.316406 19.578125 -63.523438 19.578125 -62.390625 C 19.578125 -61.140625 20.257812 -59.351562 21.625 -57.03125 L 35.484375 -33.34375 L 35.84375 -33.34375 L 45.953125 -50.328125 C 47.859375 -53.546875 49.210938 -56.078125 50.015625 -57.921875 C 50.816406 -59.773438 51.21875 -61.265625 51.21875 -62.390625 C 51.21875 -63.523438 50.785156 -64.316406 49.921875 -64.765625 C 49.054688 -65.210938 47.550781 -65.4375 45.40625 -65.4375 L 45.40625 -68.828125 L 65.875 -68.828125 L 65.875 -65.4375 C 64.625 -65.4375 63.503906 -65.253906 62.515625 -64.890625 C 61.535156 -64.535156 60.507812 -63.820312 59.4375 -62.75 C 58.363281 -61.675781 57.1875 -60.1875 55.90625 -58.28125 C 54.625 -56.375 53.0625 -53.875 51.21875 -50.78125 L 37.453125 -27.53125 L 37.453125 -16.890625 C 37.453125 -13.972656 37.554688 -11.632812 37.765625 -9.875 C 37.972656 -8.113281 38.421875 -6.753906 39.109375 -5.796875 C 39.796875 -4.847656 40.78125 -4.207031 42.0625 -3.875 C 43.34375 -3.550781 45.054688 -3.390625 47.203125 -3.390625 L 47.203125 0 L 18.234375 0 L 18.234375 -3.390625 C 20.378906 -3.390625 22.09375 -3.550781 23.375 -3.875 C 24.65625 -4.207031 25.640625 -4.835938 26.328125 -5.765625 C 27.015625 -6.691406 27.472656 -7.988281 27.703125 -9.65625 C 27.941406 -11.320312 28.0625 -13.523438 28.0625 -16.265625 L 28.0625 -27.171875 Z M 10.1875 -57.75 "/></g></g></g></g></g></g><g clip-path="url(#161316c286)"><g transform="matrix(1, 0, 0, 1, 7, 0.000000000000004653)"><g clip-path="url(#16647ca731)"><g fill="#ffffff" fill-opacity="1"><g transform="translate(1.862539, 97.759812)"><g><path d="M 62.6875 -26.9375 L 62.6875 -61.96875 C 57.71875 -67.957031 51.128906 -70.953125 42.921875 -70.953125 C 36.640625 -70.953125 31.476562 -68.421875 27.4375 -63.359375 C 23.394531 -58.296875 21.375 -52.144531 21.375 -44.90625 C 21.375 -37.84375 23.4375 -31.734375 27.5625 -26.578125 C 31.695312 -21.429688 36.816406 -18.859375 42.921875 -18.859375 C 49.691406 -18.859375 56.28125 -21.550781 62.6875 -26.9375 Z M 78.84375 -62.859375 L 78.84375 -10.78125 C 78.84375 -8.800781 80.113281 -7.109375 82.65625 -5.703125 C 85.207031 -4.296875 88.128906 -3.59375 91.421875 -3.59375 L 91.421875 0 L 50.109375 0 L 50.109375 -3.59375 C 53.460938 -3.59375 56.394531 -4.28125 58.90625 -5.65625 C 61.425781 -7.03125 62.6875 -8.738281 62.6875 -10.78125 L 62.6875 -20.65625 C 56.28125 -15.269531 48.492188 -12.578125 39.328125 -12.578125 C 29.992188 -12.578125 21.972656 -15.75 15.265625 -22.09375 C 8.554688 -28.4375 5.203125 -36.039062 5.203125 -44.90625 C 5.203125 -53.820312 8.507812 -61.4375 15.125 -67.75 C 21.75 -74.070312 29.816406 -77.234375 39.328125 -77.234375 C 47.597656 -77.234375 55.382812 -74.238281 62.6875 -68.25 L 62.6875 -86.21875 L -0.53125 -86.21875 L -0.53125 -93.390625 L 147.8125 -93.390625 L 147.8125 -86.21875 L 78.84375 -86.21875 L 78.84375 -70.046875 C 84.71875 -74.835938 92.503906 -77.234375 102.203125 -77.234375 C 111.773438 -77.234375 119.851562 -74.117188 126.4375 -67.890625 C 133.03125 -61.660156 136.328125 -54 136.328125 -44.90625 C 136.328125 -35.863281 132.988281 -28.210938 126.3125 -21.953125 C 119.632812 -15.703125 111.597656 -12.578125 102.203125 -12.578125 C 95.078125 -12.578125 88.488281 -14.96875 82.4375 -19.75 L 84.234375 -24.25 C 88.367188 -20.65625 93.160156 -18.859375 98.609375 -18.859375 C 104.535156 -18.859375 109.609375 -21.414062 113.828125 -26.53125 C 118.046875 -31.65625 120.15625 -37.78125 120.15625 -44.90625 C 120.15625 -52.144531 118.070312 -58.296875 113.90625 -63.359375 C 109.75 -68.421875 104.648438 -70.953125 98.609375 -70.953125 C 90.046875 -70.953125 83.457031 -68.253906 78.84375 -62.859375 Z M 78.84375 -62.859375 "/></g></g></g><g fill="#ffffff" fill-opacity="1"><g transform="translate(106.753082, 105.662534)"><g><path d="M -7 43.109375 L -23.171875 43.109375 C -34.003906 43.109375 -42.695312 41.113281 -49.25 37.125 C -55.8125 33.144531 -59.09375 27.953125 -59.09375 21.546875 C -59.09375 15.140625 -55.8125 9.945312 -49.25 5.96875 C -42.695312 1.988281 -34.003906 0 -23.171875 0 L -7 0 L -7 5.390625 L -23.171875 5.390625 C -28.734375 5.390625 -33.414062 6.957031 -37.21875 10.09375 C -41.019531 13.238281 -42.921875 17.054688 -42.921875 21.546875 C -42.921875 25.921875 -40.988281 29.707031 -37.125 32.90625 C -33.269531 36.113281 -28.617188 37.71875 -23.171875 37.71875 L -7 37.71875 Z M -7 43.109375 "/></g></g></g></g></g></g><g clip-path="url(#7c2559eb46)"><g transform="matrix(1, 0, 0, 1, 0.000000000000000014, 3)"><g clip-path="url(#86ac46d58c)"><g clip-path="url(#818cbbcf86)"><path fill="#ffffff" d="M 0.0898438 0.625 L 224.453125 0.625 L 224.453125 9.296875 L 0.0898438 9.296875 Z M 0.0898438 0.625 " fill-opacity="1" fill-rule="nonzero"/></g></g></g></g><g clip-path="url(#4a22df5cfd)"><g transform="matrix(1, 0, 0, 1, 336, 3)"><g clip-path="url(#6b294efb1f)"><g clip-path="url(#6e1ef15263)"><path fill="#ffffff" d="M 0.859375 0.625 L 23.925781 0.625 L 23.925781 9.296875 L 0.859375 9.296875 Z M 0.859375 0.625 " fill-opacity="1" fill-rule="nonzero"/></g></g></g></g><g clip-path="url(#eb925c1b35)"><g transform="matrix(1, 0, 0, 1, 336, 3)"><g clip-path="url(#86c6559ca8)"><g clip-path="url(#6a8a2714aa)"><path fill="#ffffff" d="M 0.859375 0.625 L 23.25 0.625 L 23.25 9.296875 L 0.859375 9.296875 Z M 0.859375 0.625 " fill-opacity="1" fill-rule="nonzero"/></g></g></g></g></svg>