<svg xmlns="http://www.w3.org/2000/svg" xmlns:xlink="http://www.w3.org/1999/xlink" width="480" zoomAndPan="magnify" viewBox="0 0 360 233.04" height="300" preserveAspectRatio="xMidYMid meet" version="1.0"><defs><g/><clipPath id="e46dce7f44"><path d="M 0.738281 0 L 359.261719 0 L 359.261719 224.078125 L 0.738281 224.078125 Z M 0.738281 0 " clip-rule="nonzero"/></clipPath><clipPath id="17813940b9"><path d="M 67.960938 0 L 292.039062 0 L 292.039062 224.078125 L 67.960938 224.078125 Z M 67.960938 0 " clip-rule="nonzero"/></clipPath><clipPath id="916db8c25d"><path d="M 180 0 C 118.121094 0 67.960938 50.160156 67.960938 112.039062 C 67.960938 173.914062 118.121094 224.078125 180 224.078125 C 241.878906 224.078125 292.039062 173.914062 292.039062 112.039062 C 292.039062 50.160156 241.878906 0 180 0 Z M 180 0 " clip-rule="nonzero"/></clipPath><clipPath id="c923fac2bd"><path d="M 0.960938 0 L 225.039062 0 L 225.039062 224.078125 L 0.960938 224.078125 Z M 0.960938 0 " clip-rule="nonzero"/></clipPath><clipPath id="090ea0802e"><path d="M 113 0 C 51.121094 0 0.960938 50.160156 0.960938 112.039062 C 0.960938 173.914062 51.121094 224.078125 113 224.078125 C 174.878906 224.078125 225.039062 173.914062 225.039062 112.039062 C 225.039062 50.160156 174.878906 0 113 0 Z M 113 0 " clip-rule="nonzero"/></clipPath><clipPath id="6abe3759f0"><rect x="0" width="226" y="0" height="225"/></clipPath><clipPath id="5af8ca8274"><path d="M 95 18 L 265 18 L 265 224.078125 L 95 224.078125 Z M 95 18 " clip-rule="nonzero"/></clipPath><clipPath id="df45852f35"><rect x="0" width="170" y="0" height="207"/></clipPath></defs><g clip-path="url(#17813940b9)"><g clip-path="url(#916db8c25d)"><g transform="matrix(1, 0, 0, 1, 67, -0.000000000000020418)"><g clip-path="url(#6abe3759f0)"><g clip-path="url(#c923fac2bd)"><g clip-path="url(#090ea0802e)"><path fill="#6b1e1e" d="M 0.960938 0 L 225.039062 0 L 225.039062 224.078125 L 0.960938 224.078125 Z M 0.960938 0 " fill-opacity="1" fill-rule="nonzero"/></g></g></g></g></g></g><g clip-path="url(#5af8ca8274)"><g transform="matrix(1, 0, 0, 1, 95, 18)"><g clip-path="url(#df45852f35)"><g fill="#ffffff" fill-opacity="1"><g transform="translate(2.068251, 141.098938)"><g><path d="M 31.484375 -56.84375 C 28.253906 -56.84375 25.597656 -55.085938 23.515625 -51.578125 C 21.441406 -48.066406 20.40625 -44.300781 20.40625 -40.28125 C 20.40625 -36.375 21.441406 -32.648438 23.515625 -29.109375 C 25.597656 -25.566406 28.253906 -23.796875 31.484375 -23.796875 C 34.597656 -23.796875 37.222656 -25.441406 39.359375 -28.734375 C 41.492188 -32.035156 42.5625 -35.882812 42.5625 -40.28125 C 42.5625 -44.675781 41.523438 -48.535156 39.453125 -51.859375 C 37.378906 -55.179688 34.722656 -56.84375 31.484375 -56.84375 Z M 85.5 -87.96875 L 38.8125 -87.96875 C 48.144531 -86.257812 55.96875 -82.273438 62.28125 -76.015625 C 68.601562 -69.765625 71.765625 -62.734375 71.765625 -54.921875 C 71.765625 -44.796875 67.828125 -36.175781 59.953125 -29.0625 C 52.085938 -21.957031 42.597656 -18.40625 31.484375 -18.40625 C 23.984375 -18.40625 17.515625 -20.566406 12.078125 -24.890625 C 6.648438 -29.222656 3.9375 -34.472656 3.9375 -40.640625 C 3.9375 -46.617188 6.347656 -51.863281 11.171875 -56.375 C 15.992188 -60.894531 21.820312 -63.15625 28.65625 -63.15625 C 35.125 -63.15625 40.429688 -60.867188 44.578125 -56.296875 C 48.722656 -51.722656 50.796875 -46.382812 50.796875 -40.28125 L 51.53125 -40.28125 C 54.03125 -43.144531 55.28125 -48.023438 55.28125 -54.921875 C 55.28125 -61.085938 53.507812 -66.75 49.96875 -71.90625 C 46.4375 -77.0625 41.863281 -81.023438 36.25 -83.796875 C 30.632812 -86.578125 26.609375 -87.96875 24.171875 -87.96875 L -0.546875 -87.96875 L -0.546875 -95.203125 L 121.921875 -95.203125 L 121.921875 -87.96875 L 101.96875 -87.96875 L 101.96875 -11.078125 C 101.96875 -8.816406 103.296875 -7.03125 105.953125 -5.71875 C 108.609375 -4.40625 111.523438 -3.75 114.703125 -3.75 L 114.703125 0 L 72.765625 0 L 72.765625 -3.75 C 75.878906 -3.75 78.78125 -4.359375 81.46875 -5.578125 C 84.15625 -6.804688 85.5 -8.640625 85.5 -11.078125 L 85.5 -24.890625 C 59.3125 -3.898438 35.875 6.59375 15.1875 6.59375 L 14.28125 -4.296875 C 34.96875 -4.296875 58.707031 -13.664062 85.5 -32.40625 Z M 77.078125 -0.921875 Z M 77.078125 -0.921875 "/></g></g></g><g fill="#ffffff" fill-opacity="1"><g transform="translate(117.767974, 141.098938)"><g><path d="M 49.984375 -87.875 L 30.03125 -87.875 L 30.03125 -10.984375 C 30.03125 -8.972656 31.328125 -7.25 33.921875 -5.8125 C 36.515625 -4.375 39.488281 -3.65625 42.84375 -3.65625 L 42.84375 0 L 0.734375 0 L 0.734375 -3.65625 C 4.148438 -3.65625 7.140625 -4.359375 9.703125 -5.765625 C 12.265625 -7.171875 13.546875 -8.910156 13.546875 -10.984375 L 13.546875 -87.875 L -0.546875 -87.875 L -0.546875 -95.203125 L 49.984375 -95.203125 Z M 49.984375 -87.875 "/></g></g></g></g></g></g></svg>