<svg xmlns="http://www.w3.org/2000/svg" xmlns:xlink="http://www.w3.org/1999/xlink" width="480" zoomAndPan="magnify" viewBox="0 0 360 113.04" height="140" preserveAspectRatio="xMidYMid meet" version="1.0"><defs><g/><clipPath id="84ff6fbe25"><path d="M 235 0 L 334 0 L 334 104.117188 L 235 104.117188 Z M 235 0 " clip-rule="nonzero"/></clipPath><clipPath id="8622a2e011"><rect x="0" width="99" y="0" height="105"/></clipPath><clipPath id="ed459014ee"><path d="M 236.367188 24.089844 L 248.226562 24.089844 L 248.226562 31.445312 L 236.367188 31.445312 Z M 236.367188 24.089844 " clip-rule="nonzero"/></clipPath><clipPath id="844ad1ec57"><path d="M 0.367188 0.0898438 L 12.226562 0.0898438 L 12.226562 7.445312 L 0.367188 7.445312 Z M 0.367188 0.0898438 " clip-rule="nonzero"/></clipPath><clipPath id="926bc2c3ba"><rect x="0" width="13" y="0" height="8"/></clipPath><clipPath id="1155d3a523"><path d="M 319.039062 24.089844 L 330.898438 24.089844 L 330.898438 38.800781 L 319.039062 38.800781 Z M 319.039062 24.089844 " clip-rule="nonzero"/></clipPath><clipPath id="9c077e8ca2"><path d="M 0.0390625 0.0898438 L 11.898438 0.0898438 L 11.898438 14.800781 L 0.0390625 14.800781 Z M 0.0390625 0.0898438 " clip-rule="nonzero"/></clipPath><clipPath id="821d2f4520"><rect x="0" width="12" y="0" height="15"/></clipPath><clipPath id="efb9ba3697"><path d="M 336.664062 6.195312 L 358.484375 6.195312 L 358.484375 14.644531 L 336.664062 14.644531 Z M 336.664062 6.195312 " clip-rule="nonzero"/></clipPath><clipPath id="01a77a241c"><path d="M 0.664062 0.195312 L 22.484375 0.195312 L 22.484375 8.644531 L 0.664062 8.644531 Z M 0.664062 0.195312 " clip-rule="nonzero"/></clipPath><clipPath id="6b58bec407"><rect x="0" width="23" y="0" height="9"/></clipPath><clipPath id="a4e4673f88"><path d="M 151 13 L 259 13 L 259 104.117188 L 151 104.117188 Z M 151 13 " clip-rule="nonzero"/></clipPath><clipPath id="3bc527e68d"><rect x="0" width="108" y="0" height="92"/></clipPath><clipPath id="1078589c2b"><path d="M 292 13 L 358.484375 13 L 358.484375 104.117188 L 292 104.117188 Z M 292 13 " clip-rule="nonzero"/></clipPath><clipPath id="2b7590b9bd"><path d="M 0.0898438 17 L 66 17 L 66 85 L 0.0898438 85 Z M 0.0898438 17 " clip-rule="nonzero"/></clipPath><clipPath id="a45cc9f640"><rect x="0" width="67" y="0" height="92"/></clipPath><clipPath id="66693a8dc9"><path d="M 1.515625 0 L 164 0 L 164 104.117188 L 1.515625 104.117188 Z M 1.515625 0 " clip-rule="nonzero"/></clipPath><clipPath id="b54e234cc6"><path d="M 1 6 L 119 6 L 119 104.117188 L 1 104.117188 Z M 1 6 " clip-rule="nonzero"/></clipPath><clipPath id="b161471893"><rect x="0" width="163" y="0" height="105"/></clipPath><clipPath id="de736c76f2"><path d="M 1.515625 6.195312 L 226.839844 6.195312 L 226.839844 14.644531 L 1.515625 14.644531 Z M 1.515625 6.195312 " clip-rule="nonzero"/></clipPath><clipPath id="3c19d4abc3"><path d="M 0.515625 0.195312 L 225.839844 0.195312 L 225.839844 8.644531 L 0.515625 8.644531 Z M 0.515625 0.195312 " clip-rule="nonzero"/></clipPath><clipPath id="93982ee5eb"><rect x="0" width="226" y="0" height="9"/></clipPath></defs><g clip-path="url(#84ff6fbe25)"><g transform="matrix(1, 0, 0, 1, 235, -0.000000000000000733)"><g clip-path="url(#8622a2e011)"><g fill="#ffffff" fill-opacity="1"><g transform="translate(1.175684, 98.878305)"><g><path d="M 94.03125 -69.265625 L 89.125 -69.265625 C 88.882812 -72.691406 88.320312 -75.5625 87.4375 -77.875 C 86.5625 -80.1875 85.304688 -82 83.671875 -83.3125 C 82.035156 -84.632812 79.984375 -85.570312 77.515625 -86.125 C 75.046875 -86.6875 72.097656 -86.96875 68.671875 -86.96875 C 65.710938 -86.96875 63.335938 -86.90625 61.546875 -86.78125 C 59.753906 -86.664062 58.378906 -86.445312 57.421875 -86.125 C 56.460938 -85.8125 55.84375 -85.429688 55.5625 -84.984375 C 55.28125 -84.546875 55.140625 -83.972656 55.140625 -83.265625 L 55.140625 -19.265625 C 55.140625 -16.710938 55.316406 -14.515625 55.671875 -12.671875 C 56.035156 -10.835938 56.753906 -9.34375 57.828125 -8.1875 C 58.910156 -7.03125 60.46875 -6.15625 62.5 -5.5625 C 64.53125 -4.96875 67.222656 -4.628906 70.578125 -4.546875 L 70.578125 0 L 25.359375 0 L 25.359375 -4.546875 C 28.710938 -4.628906 31.425781 -4.96875 33.5 -5.5625 C 35.570312 -6.15625 37.144531 -7.03125 38.21875 -8.1875 C 39.289062 -9.34375 40.003906 -10.835938 40.359375 -12.671875 C 40.722656 -14.515625 40.90625 -16.710938 40.90625 -19.265625 L 40.90625 -83.265625 C 40.90625 -83.972656 40.765625 -84.546875 40.484375 -84.984375 C 40.210938 -85.429688 39.65625 -85.8125 38.8125 -86.125 C 37.976562 -86.445312 36.800781 -86.664062 35.28125 -86.78125 C 33.769531 -86.90625 31.738281 -86.96875 29.1875 -86.96875 C 26.070312 -86.96875 23.179688 -86.847656 20.515625 -86.609375 C 17.847656 -86.367188 15.535156 -85.671875 13.578125 -84.515625 C 11.617188 -83.359375 10.039062 -81.582031 8.84375 -79.1875 C 7.65625 -76.800781 7.019531 -73.492188 6.9375 -69.265625 L 2.515625 -69.265625 L 2.515625 -92.109375 L 92.828125 -92.109375 Z M 94.03125 -69.265625 "/></g></g></g></g></g></g><g clip-path="url(#ed459014ee)"><g transform="matrix(1, 0, 0, 1, 236, 24)"><g clip-path="url(#926bc2c3ba)"><g clip-path="url(#844ad1ec57)"></g></g></g></g><g clip-path="url(#1155d3a523)"><g transform="matrix(1, 0, 0, 1, 319, 24)"><g clip-path="url(#821d2f4520)"><g clip-path="url(#9c077e8ca2)"></g></g></g></g><g clip-path="url(#efb9ba3697)"><g transform="matrix(1, 0, 0, 1, 336, 6)"><g clip-path="url(#6b58bec407)"><g clip-path="url(#01a77a241c)"><path fill="#ffffff" d="M 0.664062 0.195312 L 22.480469 0.195312 L 22.480469 8.644531 L 0.664062 8.644531 Z M 0.664062 0.195312 " fill-opacity="1" fill-rule="nonzero"/></g></g></g></g><g clip-path="url(#a4e4673f88)"><g transform="matrix(1, 0, 0, 1, 151, 13)"><g clip-path="url(#3bc527e68d)"><g fill="#ffffff" fill-opacity="1"><g transform="translate(0.900641, 84.848651)"><g><path d="M 60.4375 0.875 L 19.078125 -53.65625 L 18.71875 -53.65625 L 18.71875 -16.453125 C 18.71875 -13.554688 18.816406 -11.265625 19.015625 -9.578125 C 19.222656 -7.890625 19.628906 -6.582031 20.234375 -5.65625 C 20.847656 -4.726562 21.722656 -4.117188 22.859375 -3.828125 C 23.992188 -3.535156 25.488281 -3.363281 27.34375 -3.3125 L 27.34375 0 L 3.921875 0 L 3.921875 -3.3125 C 5.953125 -3.363281 7.59375 -3.550781 8.84375 -3.875 C 10.09375 -4.195312 11.0625 -4.789062 11.75 -5.65625 C 12.445312 -6.53125 12.910156 -7.765625 13.140625 -9.359375 C 13.378906 -10.953125 13.5 -13.113281 13.5 -15.84375 L 13.5 -51.21875 C 13.5 -53.65625 13.394531 -55.671875 13.1875 -57.265625 C 12.988281 -58.859375 12.582031 -60.117188 11.96875 -61.046875 C 11.363281 -61.984375 10.476562 -62.640625 9.3125 -63.015625 C 8.15625 -63.390625 6.648438 -63.632812 4.796875 -63.75 L 4.796875 -67.0625 L 22.03125 -67.0625 L 60.09375 -16.28125 L 60.4375 -16.28125 L 60.4375 -50.59375 C 60.4375 -53.445312 60.332031 -55.726562 60.125 -57.4375 C 59.925781 -59.144531 59.519531 -60.460938 58.90625 -61.390625 C 58.300781 -62.328125 57.429688 -62.941406 56.296875 -63.234375 C 55.171875 -63.523438 53.679688 -63.695312 51.828125 -63.75 L 51.828125 -67.0625 L 75.25 -67.0625 L 75.25 -63.75 C 73.21875 -63.695312 71.578125 -63.507812 70.328125 -63.1875 C 69.078125 -62.863281 68.101562 -62.265625 67.40625 -61.390625 C 66.707031 -60.523438 66.242188 -59.28125 66.015625 -57.65625 C 65.785156 -56.03125 65.671875 -53.882812 65.671875 -51.21875 L 65.671875 0.875 Z M 60.4375 0.875 "/></g></g></g><g fill="#ffffff" fill-opacity="1"><g transform="translate(73.089652, 84.848651)"><g><path d="M 22.640625 -16.453125 C 22.640625 -13.554688 22.753906 -11.265625 22.984375 -9.578125 C 23.222656 -7.890625 23.675781 -6.582031 24.34375 -5.65625 C 25.007812 -4.726562 25.96875 -4.117188 27.21875 -3.828125 C 28.46875 -3.535156 30.109375 -3.363281 32.140625 -3.3125 L 32.140625 0 L 3.921875 0 L 3.921875 -3.3125 C 5.953125 -3.363281 7.59375 -3.550781 8.84375 -3.875 C 10.09375 -4.195312 11.0625 -4.789062 11.75 -5.65625 C 12.445312 -6.53125 12.910156 -7.765625 13.140625 -9.359375 C 13.378906 -10.953125 13.5 -13.113281 13.5 -15.84375 L 13.5 -51.21875 C 13.5 -53.65625 13.394531 -55.671875 13.1875 -57.265625 C 12.988281 -58.859375 12.582031 -60.117188 11.96875 -61.046875 C 11.363281 -61.984375 10.476562 -62.640625 9.3125 -63.015625 C 8.15625 -63.390625 6.648438 -63.632812 4.796875 -63.75 L 4.796875 -67.0625 L 31.265625 -67.0625 L 31.265625 -63.75 C 29.410156 -63.695312 27.914062 -63.46875 26.78125 -63.0625 C 25.644531 -62.65625 24.769531 -61.972656 24.15625 -61.015625 C 23.550781 -60.054688 23.144531 -58.734375 22.9375 -57.046875 C 22.738281 -55.359375 22.640625 -53.207031 22.640625 -50.59375 Z M 22.640625 -16.453125 "/></g></g></g></g></g></g><g clip-path="url(#1078589c2b)"><g transform="matrix(1, 0, 0, 1, 292, 13)"><g clip-path="url(#a45cc9f640)"><g clip-path="url(#2b7590b9bd)"><g fill="#ffffff" fill-opacity="1"><g transform="translate(1.272244, 84.847152)"><g><path d="M 9.921875 -56.265625 C 9.054688 -57.773438 8.242188 -59.007812 7.484375 -59.96875 C 6.734375 -60.925781 5.960938 -61.691406 5.171875 -62.265625 C 4.390625 -62.847656 3.5625 -63.238281 2.6875 -63.4375 C 1.820312 -63.644531 0.78125 -63.75 -0.4375 -63.75 L -0.4375 -67.0625 L 27 -67.0625 L 27 -63.75 C 24.09375 -63.75 22.046875 -63.53125 20.859375 -63.09375 C 19.671875 -62.664062 19.078125 -61.898438 19.078125 -60.796875 C 19.078125 -59.578125 19.742188 -57.832031 21.078125 -55.5625 L 34.578125 -32.484375 L 34.921875 -32.484375 L 44.765625 -49.03125 C 46.617188 -52.164062 47.9375 -54.632812 48.71875 -56.4375 C 49.507812 -58.238281 49.90625 -59.691406 49.90625 -60.796875 C 49.90625 -61.898438 49.484375 -62.664062 48.640625 -63.09375 C 47.796875 -63.53125 46.332031 -63.75 44.25 -63.75 L 44.25 -67.0625 L 64.1875 -67.0625 L 64.1875 -63.75 C 62.96875 -63.75 61.878906 -63.570312 60.921875 -63.21875 C 59.960938 -62.875 58.957031 -62.179688 57.90625 -61.140625 C 56.863281 -60.097656 55.71875 -58.644531 54.46875 -56.78125 C 53.226562 -54.925781 51.707031 -52.488281 49.90625 -49.46875 L 36.5 -26.828125 L 36.5 -16.453125 C 36.5 -13.609375 36.597656 -11.328125 36.796875 -9.609375 C 37.003906 -7.898438 37.441406 -6.582031 38.109375 -5.65625 C 38.773438 -4.726562 39.726562 -4.101562 40.96875 -3.78125 C 42.21875 -3.46875 43.890625 -3.3125 45.984375 -3.3125 L 45.984375 0 L 17.765625 0 L 17.765625 -3.3125 C 19.859375 -3.3125 21.523438 -3.46875 22.765625 -3.78125 C 24.015625 -4.101562 24.972656 -4.710938 25.640625 -5.609375 C 26.316406 -6.515625 26.769531 -7.78125 27 -9.40625 C 27.226562 -11.03125 27.34375 -13.175781 27.34375 -15.84375 L 27.34375 -26.46875 Z M 9.921875 -56.265625 "/></g></g></g></g></g></g></g><g clip-path="url(#66693a8dc9)"><g transform="matrix(1, 0, 0, 1, 1, -0.000000000000000733)"><g clip-path="url(#b161471893)"><g clip-path="url(#b54e234cc6)"><g fill="#ffffff" fill-opacity="1"><g transform="translate(1.888778, 97.913049)"><g><path d="M 30.09375 -54.34375 C 27.007812 -54.34375 24.472656 -52.664062 22.484375 -49.3125 C 20.503906 -45.957031 19.515625 -42.351562 19.515625 -38.5 C 19.515625 -34.769531 20.503906 -31.210938 22.484375 -27.828125 C 24.472656 -24.441406 27.007812 -22.75 30.09375 -22.75 C 33.070312 -22.75 35.582031 -24.320312 37.625 -27.46875 C 39.664062 -30.625 40.6875 -34.300781 40.6875 -38.5 C 40.6875 -42.695312 39.691406 -46.382812 37.703125 -49.5625 C 35.722656 -52.75 33.1875 -54.34375 30.09375 -54.34375 Z M 81.71875 -84.09375 L 37.09375 -84.09375 C 46.019531 -82.457031 53.5 -78.648438 59.53125 -72.671875 C 65.570312 -66.691406 68.59375 -59.96875 68.59375 -52.5 C 68.59375 -42.8125 64.832031 -34.570312 57.3125 -27.78125 C 49.789062 -20.988281 40.71875 -17.59375 30.09375 -17.59375 C 22.925781 -17.59375 16.742188 -19.660156 11.546875 -23.796875 C 6.359375 -27.941406 3.765625 -32.957031 3.765625 -38.84375 C 3.765625 -44.5625 6.066406 -49.578125 10.671875 -53.890625 C 15.285156 -58.210938 20.859375 -60.375 27.390625 -60.375 C 33.566406 -60.375 38.640625 -58.1875 42.609375 -53.8125 C 46.578125 -49.4375 48.5625 -44.332031 48.5625 -38.5 L 49.265625 -38.5 C 51.648438 -41.238281 52.84375 -45.90625 52.84375 -52.5 C 52.84375 -58.394531 51.148438 -63.804688 47.765625 -68.734375 C 44.390625 -73.660156 40.015625 -77.453125 34.640625 -80.109375 C 29.273438 -82.765625 25.425781 -84.09375 23.09375 -84.09375 L -0.53125 -84.09375 L -0.53125 -91 L 116.546875 -91 L 116.546875 -84.09375 L 97.484375 -84.09375 L 97.484375 -10.59375 C 97.484375 -8.425781 98.75 -6.71875 101.28125 -5.46875 C 103.820312 -4.21875 106.609375 -3.59375 109.640625 -3.59375 L 109.640625 0 L 69.5625 0 L 69.5625 -3.59375 C 72.539062 -3.59375 75.3125 -4.175781 77.875 -5.34375 C 80.4375 -6.507812 81.71875 -8.257812 81.71875 -10.59375 L 81.71875 -23.796875 C 56.695312 -3.734375 34.300781 6.296875 14.53125 6.296875 L 13.65625 -4.109375 C 33.425781 -4.109375 56.113281 -13.0625 81.71875 -30.96875 Z M 73.671875 -0.875 Z M 73.671875 -0.875 "/></g></g></g></g><g fill="#ffffff" fill-opacity="1"><g transform="translate(112.486123, 97.913049)"><g><path d="M 47.78125 -84 L 28.703125 -84 L 28.703125 -10.5 C 28.703125 -8.570312 29.941406 -6.921875 32.421875 -5.546875 C 34.898438 -4.179688 37.742188 -3.5 40.953125 -3.5 L 40.953125 0 L 0.703125 0 L 0.703125 -3.5 C 3.960938 -3.5 6.816406 -4.171875 9.265625 -5.515625 C 11.722656 -6.859375 12.953125 -8.519531 12.953125 -10.5 L 12.953125 -84 L -0.53125 -84 L -0.53125 -91 L 47.78125 -91 Z M 47.78125 -84 "/></g></g></g></g></g></g><g clip-path="url(#de736c76f2)"><g transform="matrix(1, 0, 0, 1, 1, 6)"><g clip-path="url(#93982ee5eb)"><g clip-path="url(#3c19d4abc3)"><path fill="#ffffff" d="M 0.515625 0.195312 L 225.855469 0.195312 L 225.855469 8.644531 L 0.515625 8.644531 Z M 0.515625 0.195312 " fill-opacity="1" fill-rule="nonzero"/></g></g></g></g></svg>