<svg xmlns="http://www.w3.org/2000/svg" xmlns:xlink="http://www.w3.org/1999/xlink" width="480" zoomAndPan="magnify" viewBox="0 0 360 233.04" height="300" preserveAspectRatio="xMidYMid meet" version="1.0"><defs><g></g></defs><g transform="matrix(1, 0, 0, 1, 215, 54)"><g clip-path="url(#0cbdff507f)"><g fill="#ffffff" fill-opacity="1"><g transform="translate(1.22426, 77.155796)"><g><path d="M 61.375 -45.21875 L 58.1875 -45.21875 C 58.03125 -47.457031 57.664062 -49.332031 57.09375 -50.84375 C 56.519531 -52.351562 55.695312 -53.535156 54.625 -54.390625 C 53.5625 -55.253906 52.222656 -55.867188 50.609375 -56.234375 C 48.992188 -56.597656 47.066406 -56.78125 44.828125 -56.78125 C 42.898438 -56.78125 41.347656 -56.738281 40.171875 -56.65625 C 39.003906 -56.582031 38.109375 -56.441406 37.484375 -56.234375 C 36.859375 -56.023438 36.453125 -55.773438 36.265625 -55.484375 C 36.085938 -55.203125 36 -54.828125 36 -54.359375 L 36 -12.578125 C 36 -10.910156 36.113281 -9.476562 36.34375 -8.28125 C 36.582031 -7.082031 37.050781 -6.101562 37.75 -5.34375 C 38.457031 -4.59375 39.472656 -4.019531 40.796875 -3.625 C 42.128906 -3.238281 43.890625 -3.019531 46.078125 -2.96875 L 46.078125 0 L 16.5625 0 L 16.5625 -2.96875 C 18.738281 -3.019531 20.503906 -3.238281 21.859375 -3.625 C 23.210938 -4.019531 24.238281 -4.59375 24.9375 -5.34375 C 25.644531 -6.101562 26.113281 -7.082031 26.34375 -8.28125 C 26.582031 -9.476562 26.703125 -10.910156 26.703125 -12.578125 L 26.703125 -54.359375 C 26.703125 -54.828125 26.609375 -55.203125 26.421875 -55.484375 C 26.242188 -55.773438 25.878906 -56.023438 25.328125 -56.234375 C 24.785156 -56.441406 24.019531 -56.582031 23.03125 -56.65625 C 22.039062 -56.738281 20.71875 -56.78125 19.0625 -56.78125 C 17.03125 -56.78125 15.140625 -56.703125 13.390625 -56.546875 C 11.648438 -56.390625 10.140625 -55.929688 8.859375 -55.171875 C 7.585938 -54.421875 6.5625 -53.265625 5.78125 -51.703125 C 5 -50.140625 4.582031 -47.976562 4.53125 -45.21875 L 1.640625 -45.21875 L 1.640625 -60.125 L 60.59375 -60.125 Z M 61.375 -45.21875 "/></g></g></g></g></g><g clip-path="url(#cddefc2c0b)"><g transform="matrix(1, 0, 0, 1, 216, 82)"><g clip-path="url(#d4b183b9e1)"><g clip-path="url(#5a5114c247)"><path fill="#6b1e1e" d="M 0.347656 0.332031 L 8.097656 0.332031 L 8.097656 5.132812 L 0.347656 5.132812 Z M 0.347656 0.332031 " fill-opacity="1" fill-rule="nonzero"/></g></g></g></g><g clip-path="url(#b984d24e3f)"><g transform="matrix(1, 0, 0, 1, 270, 82)"><g clip-path="url(#119ffe22e0)"><g clip-path="url(#f501743ca8)"><path fill="#6b1e1e" d="M 0.320312 0.332031 L 8.058594 0.332031 L 8.058594 9.949219 L 0.320312 9.949219 Z M 0.320312 0.332031 " fill-opacity="1" fill-rule="nonzero"/></g></g></g></g><g clip-path="url(#3f865f4799)"><g transform="matrix(1, 0, 0, 1, 281, 70)"><g clip-path="url(#9d9498cc38)"><g clip-path="url(#9a2d9425c9)"><path fill="#ffffff" d="M 0.824219 0.652344 L 15.066406 0.652344 L 15.066406 6.167969 L 0.824219 6.167969 Z M 0.824219 0.652344 " fill-opacity="1" fill-rule="nonzero"/></g></g></g></g><g fill="#ffffff" fill-opacity="1"><g transform="translate(161.207992, 130.483616)"><g><path d="M 39.453125 0.5625 L 12.453125 -35.03125 L 12.21875 -35.03125 L 12.21875 -10.75 C 12.21875 -8.851562 12.285156 -7.351562 12.421875 -6.25 C 12.554688 -5.15625 12.820312 -4.300781 13.21875 -3.6875 C 13.613281 -3.082031 14.179688 -2.6875 14.921875 -2.5 C 15.660156 -2.3125 16.640625 -2.195312 17.859375 -2.15625 L 17.859375 0 L 2.5625 0 L 2.5625 -2.15625 C 3.882812 -2.195312 4.953125 -2.320312 5.765625 -2.53125 C 6.585938 -2.738281 7.222656 -3.125 7.671875 -3.6875 C 8.128906 -4.257812 8.429688 -5.066406 8.578125 -6.109375 C 8.734375 -7.148438 8.8125 -8.5625 8.8125 -10.34375 L 8.8125 -33.4375 C 8.8125 -35.03125 8.742188 -36.347656 8.609375 -37.390625 C 8.484375 -38.429688 8.21875 -39.253906 7.8125 -39.859375 C 7.414062 -40.460938 6.835938 -40.882812 6.078125 -41.125 C 5.328125 -41.375 4.34375 -41.539062 3.125 -41.625 L 3.125 -43.78125 L 14.390625 -43.78125 L 39.234375 -10.625 L 39.453125 -10.625 L 39.453125 -33.03125 C 39.453125 -34.894531 39.382812 -36.382812 39.25 -37.5 C 39.125 -38.613281 38.863281 -39.472656 38.46875 -40.078125 C 38.070312 -40.691406 37.503906 -41.09375 36.765625 -41.28125 C 36.023438 -41.46875 35.046875 -41.582031 33.828125 -41.625 L 33.828125 -43.78125 L 49.125 -43.78125 L 49.125 -41.625 C 47.800781 -41.582031 46.726562 -41.457031 45.90625 -41.25 C 45.09375 -41.039062 44.457031 -40.648438 44 -40.078125 C 43.550781 -39.515625 43.25 -38.703125 43.09375 -37.640625 C 42.945312 -36.578125 42.875 -35.175781 42.875 -33.4375 L 42.875 0.5625 Z M 39.453125 0.5625 "/></g></g></g><g fill="#ffffff" fill-opacity="1"><g transform="translate(208.334282, 130.483616)"><g><path d="M 14.78125 -10.75 C 14.78125 -8.851562 14.851562 -7.351562 15 -6.25 C 15.15625 -5.15625 15.453125 -4.300781 15.890625 -3.6875 C 16.328125 -3.082031 16.953125 -2.6875 17.765625 -2.5 C 18.578125 -2.3125 19.648438 -2.195312 20.984375 -2.15625 L 20.984375 0 L 2.5625 0 L 2.5625 -2.15625 C 3.882812 -2.195312 4.953125 -2.320312 5.765625 -2.53125 C 6.585938 -2.738281 7.222656 -3.125 7.671875 -3.6875 C 8.128906 -4.257812 8.429688 -5.066406 8.578125 -6.109375 C 8.734375 -7.148438 8.8125 -8.5625 8.8125 -10.34375 L 8.8125 -33.4375 C 8.8125 -35.03125 8.742188 -36.347656 8.609375 -37.390625 C 8.484375 -38.429688 8.21875 -39.253906 7.8125 -39.859375 C 7.414062 -40.460938 6.835938 -40.882812 6.078125 -41.125 C 5.328125 -41.375 4.34375 -41.539062 3.125 -41.625 L 3.125 -43.78125 L 20.40625 -43.78125 L 20.40625 -41.625 C 19.195312 -41.582031 18.222656 -41.425781 17.484375 -41.15625 C 16.742188 -40.894531 16.175781 -40.453125 15.78125 -39.828125 C 15.382812 -39.203125 15.117188 -38.335938 14.984375 -37.234375 C 14.847656 -36.140625 14.78125 -34.738281 14.78125 -33.03125 Z M 14.78125 -10.75 "/></g></g></g><g fill="#ffffff" fill-opacity="1"><g transform="translate(253.497949, 130.482638)"><g><path d="M 6.484375 -36.734375 C 5.910156 -37.710938 5.378906 -38.515625 4.890625 -39.140625 C 4.398438 -39.773438 3.894531 -40.28125 3.375 -40.65625 C 2.863281 -41.03125 2.320312 -41.285156 1.75 -41.421875 C 1.1875 -41.554688 0.507812 -41.625 -0.28125 -41.625 L -0.28125 -43.78125 L 17.625 -43.78125 L 17.625 -41.625 C 15.726562 -41.625 14.390625 -41.476562 13.609375 -41.1875 C 12.835938 -40.90625 12.453125 -40.40625 12.453125 -39.6875 C 12.453125 -38.894531 12.890625 -37.757812 13.765625 -36.28125 L 22.578125 -21.203125 L 22.796875 -21.203125 L 29.21875 -32.015625 C 30.4375 -34.054688 31.300781 -35.664062 31.8125 -36.84375 C 32.320312 -38.019531 32.578125 -38.96875 32.578125 -39.6875 C 32.578125 -40.40625 32.300781 -40.90625 31.75 -41.1875 C 31.207031 -41.476562 30.253906 -41.625 28.890625 -41.625 L 28.890625 -43.78125 L 41.90625 -43.78125 L 41.90625 -41.625 C 41.113281 -41.625 40.398438 -41.507812 39.765625 -41.28125 C 39.140625 -41.050781 38.484375 -40.59375 37.796875 -39.90625 C 37.117188 -39.226562 36.375 -38.28125 35.5625 -37.0625 C 34.75 -35.851562 33.753906 -34.265625 32.578125 -32.296875 L 23.828125 -17.515625 L 23.828125 -10.75 C 23.828125 -8.882812 23.890625 -7.394531 24.015625 -6.28125 C 24.148438 -5.164062 24.4375 -4.300781 24.875 -3.6875 C 25.3125 -3.082031 25.9375 -2.675781 26.75 -2.46875 C 27.5625 -2.257812 28.648438 -2.15625 30.015625 -2.15625 L 30.015625 0 L 11.59375 0 L 11.59375 -2.15625 C 12.957031 -2.15625 14.046875 -2.257812 14.859375 -2.46875 C 15.679688 -2.675781 16.3125 -3.070312 16.75 -3.65625 C 17.1875 -4.25 17.476562 -5.078125 17.625 -6.140625 C 17.78125 -7.203125 17.859375 -8.601562 17.859375 -10.34375 L 17.859375 -17.28125 Z M 6.484375 -36.734375 "/></g></g></g><g transform="matrix(1, 0, 0, 1, 62, 43)"><g clip-path="url(#601470d8c6)"><g fill="#ffffff" fill-opacity="1"><g transform="translate(1.930361, 87.525653)"><g><path d="M 19.65625 -35.46875 C 17.632812 -35.46875 15.972656 -34.375 14.671875 -32.1875 C 13.378906 -30 12.734375 -27.648438 12.734375 -25.140625 C 12.734375 -22.703125 13.378906 -20.375 14.671875 -18.15625 C 15.972656 -15.945312 17.632812 -14.84375 19.65625 -14.84375 C 21.59375 -14.84375 23.226562 -15.867188 24.5625 -17.921875 C 25.894531 -19.984375 26.5625 -22.390625 26.5625 -25.140625 C 26.5625 -27.878906 25.910156 -30.285156 24.609375 -32.359375 C 23.316406 -34.429688 21.664062 -35.46875 19.65625 -35.46875 Z M 53.34375 -54.890625 L 24.21875 -54.890625 C 30.039062 -53.828125 34.921875 -51.34375 38.859375 -47.4375 C 42.804688 -43.53125 44.78125 -39.140625 44.78125 -34.265625 C 44.78125 -27.953125 42.320312 -22.578125 37.40625 -18.140625 C 32.5 -13.703125 26.582031 -11.484375 19.65625 -11.484375 C 14.96875 -11.484375 10.925781 -12.832031 7.53125 -15.53125 C 4.144531 -18.238281 2.453125 -21.515625 2.453125 -25.359375 C 2.453125 -29.085938 3.957031 -32.359375 6.96875 -35.171875 C 9.976562 -37.992188 13.613281 -39.40625 17.875 -39.40625 C 21.914062 -39.40625 25.226562 -37.976562 27.8125 -35.125 C 30.40625 -32.269531 31.703125 -28.941406 31.703125 -25.140625 L 32.15625 -25.140625 C 33.71875 -26.921875 34.5 -29.960938 34.5 -34.265625 C 34.5 -38.117188 33.394531 -41.65625 31.1875 -44.875 C 28.976562 -48.09375 26.117188 -50.566406 22.609375 -52.296875 C 19.109375 -54.023438 16.597656 -54.890625 15.078125 -54.890625 L -0.34375 -54.890625 L -0.34375 -59.40625 L 76.078125 -59.40625 L 76.078125 -54.890625 L 63.640625 -54.890625 L 63.640625 -6.90625 C 63.640625 -5.5 64.46875 -4.382812 66.125 -3.5625 C 67.78125 -2.75 69.597656 -2.34375 71.578125 -2.34375 L 71.578125 0 L 45.40625 0 L 45.40625 -2.34375 C 47.351562 -2.34375 49.160156 -2.722656 50.828125 -3.484375 C 52.503906 -4.242188 53.34375 -5.382812 53.34375 -6.90625 L 53.34375 -15.53125 C 37.007812 -2.4375 22.390625 4.109375 9.484375 4.109375 L 8.90625 -2.6875 C 21.820312 -2.6875 36.632812 -8.53125 53.34375 -20.21875 Z M 48.09375 -0.578125 Z M 48.09375 -0.578125 "/></g></g></g><g fill="#ffffff" fill-opacity="1"><g transform="translate(74.130305, 87.525653)"><g><path d="M 31.1875 -54.84375 L 18.734375 -54.84375 L 18.734375 -6.859375 C 18.734375 -5.597656 19.539062 -4.519531 21.15625 -3.625 C 22.78125 -2.726562 24.640625 -2.28125 26.734375 -2.28125 L 26.734375 0 L 0.453125 0 L 0.453125 -2.28125 C 2.585938 -2.28125 4.453125 -2.71875 6.046875 -3.59375 C 7.648438 -4.46875 8.453125 -5.554688 8.453125 -6.859375 L 8.453125 -54.84375 L -0.34375 -54.84375 L -0.34375 -59.40625 L 31.1875 -59.40625 Z M 31.1875 -54.84375 "/></g></g></g></g></g><g clip-path="url(#5ce098fb21)"><g transform="matrix(1, 0, 0, 1, 63, 70)"><g clip-path="url(#25e914fd7a)"><g clip-path="url(#1c5cde9aca)"><path fill="#ffffff" d="M 0.0351562 0.652344 L 147.136719 0.652344 L 147.136719 6.167969 L 0.0351562 6.167969 Z M 0.0351562 0.652344 " fill-opacity="1" fill-rule="nonzero"/></g></g></g></g></svg>