<svg xmlns="http://www.w3.org/2000/svg" xmlns:xlink="http://www.w3.org/1999/xlink" width="480" zoomAndPan="magnify" viewBox="0 0 360 233.04" height="300" preserveAspectRatio="xMidYMid meet" version="1.0"><defs></defs><g clip-path="url(#86ca99993b)"><g transform="matrix(2.100721, 0, 0, 2.101101, -4.419916, -17.076532)"></g></g><g transform="matrix(1, 0, 0, 1, 210, 54)"><g clip-path="url(#77f41ea8a6)"><g fill="#ffffff" fill-opacity="1"><g transform="translate(1.541417, 77.155789)"><g><path d="M 61.375 -45.21875 L 58.1875 -45.21875 C 58.03125 -47.457031 57.664062 -49.332031 57.09375 -50.84375 C 56.519531 -52.351562 55.695312 -53.535156 54.625 -54.390625 C 53.5625 -55.253906 52.222656 -55.867188 50.609375 -56.234375 C 48.992188 -56.597656 47.066406 -56.78125 44.828125 -56.78125 C 42.898438 -56.78125 41.347656 -56.738281 40.171875 -56.65625 C 39.003906 -56.582031 38.109375 -56.441406 37.484375 -56.234375 C 36.859375 -56.023438 36.453125 -55.773438 36.265625 -55.484375 C 36.085938 -55.203125 36 -54.828125 36 -54.359375 L 36 -12.578125 C 36 -10.910156 36.113281 -9.476562 36.34375 -8.28125 C 36.582031 -7.082031 37.050781 -6.101562 37.75 -5.34375 C 38.457031 -4.59375 39.472656 -4.019531 40.796875 -3.625 C 42.128906 -3.238281 43.890625 -3.019531 46.078125 -2.96875 L 46.078125 0 L 16.5625 0 L 16.5625 -2.96875 C 18.738281 -3.019531 20.503906 -3.238281 21.859375 -3.625 C 23.210938 -4.019531 24.238281 -4.59375 24.9375 -5.34375 C 25.644531 -6.101562 26.113281 -7.082031 26.34375 -8.28125 C 26.582031 -9.476562 26.703125 -10.910156 26.703125 -12.578125 L 26.703125 -54.359375 C 26.703125 -54.828125 26.609375 -55.203125 26.421875 -55.484375 C 26.242188 -55.773438 25.878906 -56.023438 25.328125 -56.234375 C 24.785156 -56.441406 24.019531 -56.582031 23.03125 -56.65625 C 22.039062 -56.738281 20.71875 -56.78125 19.0625 -56.78125 C 17.03125 -56.78125 15.140625 -56.703125 13.390625 -56.546875 C 11.648438 -56.390625 10.140625 -55.929688 8.859375 -55.171875 C 7.585938 -54.421875 6.5625 -53.265625 5.78125 -51.703125 C 5 -50.140625 4.582031 -47.976562 4.53125 -45.21875 L 1.640625 -45.21875 L 1.640625 -60.125 L 60.59375 -60.125 Z M 61.375 -45.21875 "/></g></g></g></g></g><g clip-path="url(#d20a86908f)"><g transform="matrix(1, 0, 0, 1, 211, 82)"><g clip-path="url(#cd04c06b04)"><g clip-path="url(#758beb7068)"></g></g></g></g><g fill="#ffffff" fill-opacity="1"><g transform="translate(156.525136, 130.483616)"><g><path d="M 39.453125 0.5625 L 12.453125 -35.03125 L 12.21875 -35.03125 L 12.21875 -10.75 C 12.21875 -8.851562 12.285156 -7.351562 12.421875 -6.25 C 12.554688 -5.15625 12.820312 -4.300781 13.21875 -3.6875 C 13.613281 -3.082031 14.179688 -2.6875 14.921875 -2.5 C 15.660156 -2.3125 16.640625 -2.195312 17.859375 -2.15625 L 17.859375 0 L 2.5625 0 L 2.5625 -2.15625 C 3.882812 -2.195312 4.953125 -2.320312 5.765625 -2.53125 C 6.585938 -2.738281 7.222656 -3.125 7.671875 -3.6875 C 8.128906 -4.257812 8.429688 -5.066406 8.578125 -6.109375 C 8.734375 -7.148438 8.8125 -8.5625 8.8125 -10.34375 L 8.8125 -33.4375 C 8.8125 -35.03125 8.742188 -36.347656 8.609375 -37.390625 C 8.484375 -38.429688 8.21875 -39.253906 7.8125 -39.859375 C 7.414062 -40.460938 6.835938 -40.882812 6.078125 -41.125 C 5.328125 -41.375 4.34375 -41.539062 3.125 -41.625 L 3.125 -43.78125 L 14.390625 -43.78125 L 39.234375 -10.625 L 39.453125 -10.625 L 39.453125 -33.03125 C 39.453125 -34.894531 39.382812 -36.382812 39.25 -37.5 C 39.125 -38.613281 38.863281 -39.472656 38.46875 -40.078125 C 38.070312 -40.691406 37.503906 -41.09375 36.765625 -41.28125 C 36.023438 -41.46875 35.046875 -41.582031 33.828125 -41.625 L 33.828125 -43.78125 L 49.125 -43.78125 L 49.125 -41.625 C 47.800781 -41.582031 46.726562 -41.457031 45.90625 -41.25 C 45.09375 -41.039062 44.457031 -40.648438 44 -40.078125 C 43.550781 -39.515625 43.25 -38.703125 43.09375 -37.640625 C 42.945312 -36.578125 42.875 -35.175781 42.875 -33.4375 L 42.875 0.5625 Z M 39.453125 0.5625 "/></g></g></g><g fill="#ffffff" fill-opacity="1"><g transform="translate(203.651426, 130.483616)"><g><path d="M 14.78125 -10.75 C 14.78125 -8.851562 14.851562 -7.351562 15 -6.25 C 15.15625 -5.15625 15.453125 -4.300781 15.890625 -3.6875 C 16.328125 -3.082031 16.953125 -2.6875 17.765625 -2.5 C 18.578125 -2.3125 19.648438 -2.195312 20.984375 -2.15625 L 20.984375 0 L 2.5625 0 L 2.5625 -2.15625 C 3.882812 -2.195312 4.953125 -2.320312 5.765625 -2.53125 C 6.585938 -2.738281 7.222656 -3.125 7.671875 -3.6875 C 8.128906 -4.257812 8.429688 -5.066406 8.578125 -6.109375 C 8.734375 -7.148438 8.8125 -8.5625 8.8125 -10.34375 L 8.8125 -33.4375 C 8.8125 -35.03125 8.742188 -36.347656 8.609375 -37.390625 C 8.484375 -38.429688 8.21875 -39.253906 7.8125 -39.859375 C 7.414062 -40.460938 6.835938 -40.882812 6.078125 -41.125 C 5.328125 -41.375 4.34375 -41.539062 3.125 -41.625 L 3.125 -43.78125 L 20.40625 -43.78125 L 20.40625 -41.625 C 19.195312 -41.582031 18.222656 -41.425781 17.484375 -41.15625 C 16.742188 -40.894531 16.175781 -40.453125 15.78125 -39.828125 C 15.382812 -39.203125 15.117188 -38.335938 14.984375 -37.234375 C 14.847656 -36.140625 14.78125 -34.738281 14.78125 -33.03125 Z M 14.78125 -10.75 "/></g></g></g><g clip-path="url(#1853d79f62)"><g transform="matrix(1, 0, 0, 1, 265, 82)"><g clip-path="url(#7421a2ea32)"><g clip-path="url(#0d243305e7)"></g></g></g></g><g fill="#ffffff" fill-opacity="1"><g transform="translate(248.815093, 130.482652)"><g><path d="M 6.484375 -36.734375 C 5.910156 -37.710938 5.378906 -38.515625 4.890625 -39.140625 C 4.398438 -39.773438 3.894531 -40.28125 3.375 -40.65625 C 2.863281 -41.03125 2.320312 -41.285156 1.75 -41.421875 C 1.1875 -41.554688 0.507812 -41.625 -0.28125 -41.625 L -0.28125 -43.78125 L 17.625 -43.78125 L 17.625 -41.625 C 15.726562 -41.625 14.390625 -41.476562 13.609375 -41.1875 C 12.835938 -40.90625 12.453125 -40.40625 12.453125 -39.6875 C 12.453125 -38.894531 12.890625 -37.757812 13.765625 -36.28125 L 22.578125 -21.203125 L 22.796875 -21.203125 L 29.21875 -32.015625 C 30.4375 -34.054688 31.300781 -35.664062 31.8125 -36.84375 C 32.320312 -38.019531 32.578125 -38.96875 32.578125 -39.6875 C 32.578125 -40.40625 32.300781 -40.90625 31.75 -41.1875 C 31.207031 -41.476562 30.253906 -41.625 28.890625 -41.625 L 28.890625 -43.78125 L 41.90625 -43.78125 L 41.90625 -41.625 C 41.113281 -41.625 40.398438 -41.507812 39.765625 -41.28125 C 39.140625 -41.050781 38.484375 -40.59375 37.796875 -39.90625 C 37.117188 -39.226562 36.375 -38.28125 35.5625 -37.0625 C 34.75 -35.851562 33.753906 -34.265625 32.578125 -32.296875 L 23.828125 -17.515625 L 23.828125 -10.75 C 23.828125 -8.882812 23.890625 -7.394531 24.015625 -6.28125 C 24.148438 -5.164062 24.4375 -4.300781 24.875 -3.6875 C 25.3125 -3.082031 25.9375 -2.675781 26.75 -2.46875 C 27.5625 -2.257812 28.648438 -2.15625 30.015625 -2.15625 L 30.015625 0 L 11.59375 0 L 11.59375 -2.15625 C 12.957031 -2.15625 14.046875 -2.257812 14.859375 -2.46875 C 15.679688 -2.675781 16.3125 -3.070312 16.75 -3.65625 C 17.1875 -4.25 17.476562 -5.078125 17.625 -6.140625 C 17.78125 -7.203125 17.859375 -8.601562 17.859375 -10.34375 L 17.859375 -17.28125 Z M 6.484375 -36.734375 "/></g></g></g><g transform="matrix(1, 0, 0, 1, 67, 43)"><g clip-path="url(#d868e87972)"><g fill="#ffffff" fill-opacity="1"><g transform="translate(1.613219, 87.525653)"><g><path d="M 39.875 -17.140625 L 39.875 -39.40625 C 36.707031 -43.21875 32.515625 -45.125 27.296875 -45.125 C 23.304688 -45.125 20.023438 -43.515625 17.453125 -40.296875 C 14.878906 -37.078125 13.59375 -33.164062 13.59375 -28.5625 C 13.59375 -24.070312 14.90625 -20.1875 17.53125 -16.90625 C 20.164062 -13.632812 23.421875 -12 27.296875 -12 C 31.609375 -12 35.800781 -13.710938 39.875 -17.140625 Z M 50.15625 -39.984375 L 50.15625 -6.859375 C 50.15625 -5.597656 50.960938 -4.519531 52.578125 -3.625 C 54.191406 -2.726562 56.050781 -2.28125 58.15625 -2.28125 L 58.15625 0 L 31.875 0 L 31.875 -2.28125 C 34.007812 -2.28125 35.875 -2.71875 37.46875 -3.59375 C 39.070312 -4.46875 39.875 -5.554688 39.875 -6.859375 L 39.875 -13.140625 C 35.800781 -9.710938 30.847656 -8 25.015625 -8 C 19.078125 -8 13.972656 -10.015625 9.703125 -14.046875 C 5.441406 -18.085938 3.3125 -22.925781 3.3125 -28.5625 C 3.3125 -34.238281 5.414062 -39.082031 9.625 -43.09375 C 13.832031 -47.113281 18.960938 -49.125 25.015625 -49.125 C 30.273438 -49.125 35.226562 -47.21875 39.875 -43.40625 L 39.875 -54.84375 L -0.34375 -54.84375 L -0.34375 -59.40625 L 94.015625 -59.40625 L 94.015625 -54.84375 L 50.15625 -54.84375 L 50.15625 -44.546875 C 53.882812 -47.597656 58.832031 -49.125 65 -49.125 C 71.09375 -49.125 76.234375 -47.144531 80.421875 -43.1875 C 84.609375 -39.226562 86.703125 -34.351562 86.703125 -28.5625 C 86.703125 -22.8125 84.578125 -17.945312 80.328125 -13.96875 C 76.085938 -9.988281 70.976562 -8 65 -8 C 60.46875 -8 56.28125 -9.519531 52.4375 -12.5625 L 53.578125 -15.421875 C 56.203125 -13.140625 59.25 -12 62.71875 -12 C 66.488281 -12 69.710938 -13.625 72.390625 -16.875 C 75.078125 -20.132812 76.421875 -24.03125 76.421875 -28.5625 C 76.421875 -33.164062 75.097656 -37.078125 72.453125 -40.296875 C 69.804688 -43.515625 66.5625 -45.125 62.71875 -45.125 C 57.269531 -45.125 53.082031 -43.410156 50.15625 -39.984375 Z M 50.15625 -39.984375 "/></g></g></g><g fill="#ffffff" fill-opacity="1"><g transform="translate(68.330269, 92.552287)"><g><path d="M -4.453125 27.421875 L -14.734375 27.421875 C -21.628906 27.421875 -27.160156 26.15625 -31.328125 23.625 C -35.492188 21.09375 -37.578125 17.785156 -37.578125 13.703125 C -37.578125 9.628906 -35.492188 6.328125 -31.328125 3.796875 C -27.160156 1.265625 -21.628906 0 -14.734375 0 L -4.453125 0 L -4.453125 3.421875 L -14.734375 3.421875 C -18.273438 3.421875 -21.253906 4.421875 -23.671875 6.421875 C -26.085938 8.421875 -27.296875 10.847656 -27.296875 13.703125 C -27.296875 16.484375 -26.066406 18.890625 -23.609375 20.921875 C -21.160156 22.960938 -18.203125 23.984375 -14.734375 23.984375 L -4.453125 23.984375 Z M -4.453125 27.421875 "/></g></g></g></g></g><g clip-path="url(#057354a9b9)"><g transform="matrix(1, 0, 0, 1, 63, 70)"><g clip-path="url(#c8c24d5b39)"><g clip-path="url(#060bd45f73)"><path fill="#ffffff" d="M 0.0351562 0.652344 L 142.742188 0.652344 L 142.742188 6.167969 L 0.0351562 6.167969 Z M 0.0351562 0.652344 " fill-opacity="1" fill-rule="nonzero"/></g></g></g></g><g clip-path="url(#3ee2794d9e)"><g transform="matrix(1, 0, 0, 1, 277, 70)"><g clip-path="url(#b0d6a289e6)"><g clip-path="url(#fa21061aff)"><path fill="#ffffff" d="M 0.238281 0.652344 L 14.910156 0.652344 L 14.910156 6.167969 L 0.238281 6.167969 Z M 0.238281 0.652344 " fill-opacity="1" fill-rule="nonzero"/></g></g></g></g><g clip-path="url(#d7e660dd5b)"><g transform="matrix(1, 0, 0, 1, 277, 70)"><g clip-path="url(#d40f267bdc)"><g clip-path="url(#32c728d785)"><path fill="#ffffff" d="M 0.238281 0.652344 L 14.480469 0.652344 L 14.480469 6.167969 L 0.238281 6.167969 Z M 0.238281 0.652344 " fill-opacity="1" fill-rule="nonzero"/></g></g></g></g></svg>