<svg xmlns="http://www.w3.org/2000/svg" xmlns:xlink="http://www.w3.org/1999/xlink" width="480" zoomAndPan="magnify" viewBox="0 0 360 233.04" height="300" preserveAspectRatio="xMidYMid meet" version="1.0"><defs><g/><clipPath id="cc8412ede1"><path d="M 0.738281 0 L 359.261719 0 L 359.261719 224.078125 L 0.738281 224.078125 Z M 0.738281 0 " clip-rule="nonzero"/></clipPath><clipPath id="02d75b714b"><path d="M 67.960938 0 L 292.039062 0 L 292.039062 224.078125 L 67.960938 224.078125 Z M 67.960938 0 " clip-rule="nonzero"/></clipPath><clipPath id="f0a9264c95"><path d="M 180 0 C 118.121094 0 67.960938 50.160156 67.960938 112.039062 C 67.960938 173.914062 118.121094 224.078125 180 224.078125 C 241.878906 224.078125 292.039062 173.914062 292.039062 112.039062 C 292.039062 50.160156 241.878906 0 180 0 Z M 180 0 " clip-rule="nonzero"/></clipPath><clipPath id="7614b63c74"><path d="M 0.960938 0 L 225.039062 0 L 225.039062 224.078125 L 0.960938 224.078125 Z M 0.960938 0 " clip-rule="nonzero"/></clipPath><clipPath id="46ea48c68c"><path d="M 113 0 C 51.121094 0 0.960938 50.160156 0.960938 112.039062 C 0.960938 173.914062 51.121094 224.078125 113 224.078125 C 174.878906 224.078125 225.039062 173.914062 225.039062 112.039062 C 225.039062 50.160156 174.878906 0 113 0 Z M 113 0 " clip-rule="nonzero"/></clipPath><clipPath id="50fa479464"><rect x="0" width="226" y="0" height="225"/></clipPath><clipPath id="609f786b4b"><rect x="0" width="154" y="0" height="222"/></clipPath></defs><g clip-path="url(#02d75b714b)"><g clip-path="url(#f0a9264c95)"><g transform="matrix(1, 0, 0, 1, 67, -0.000000000000020418)"><g clip-path="url(#50fa479464)"><g clip-path="url(#7614b63c74)"><g clip-path="url(#46ea48c68c)"><path fill="#3b5a42" d="M 0.960938 0 L 225.039062 0 L 225.039062 224.078125 L 0.960938 224.078125 Z M 0.960938 0 " fill-opacity="1" fill-rule="nonzero"/></g></g></g></g></g></g><g transform="matrix(1, 0, 0, 1, 107, 1)"><g clip-path="url(#609f786b4b)"><g fill="#ffffff" fill-opacity="1"><g transform="translate(1.581085, 140.664004)"><g><path d="M 63.890625 -27.46875 L 63.890625 -63.15625 C 58.828125 -69.257812 52.113281 -72.3125 43.75 -72.3125 C 37.34375 -72.3125 32.078125 -69.734375 27.953125 -64.578125 C 23.835938 -59.421875 21.78125 -53.148438 21.78125 -45.765625 C 21.78125 -38.566406 23.882812 -32.34375 28.09375 -27.09375 C 32.3125 -21.84375 37.53125 -19.21875 43.75 -19.21875 C 50.644531 -19.21875 57.359375 -21.96875 63.890625 -27.46875 Z M 80.375 -64.078125 L 80.375 -10.984375 C 80.375 -8.972656 81.671875 -7.25 84.265625 -5.8125 C 86.859375 -4.375 89.832031 -3.65625 93.1875 -3.65625 L 93.1875 0 L 51.078125 0 L 51.078125 -3.65625 C 54.492188 -3.65625 57.484375 -4.359375 60.046875 -5.765625 C 62.609375 -7.171875 63.890625 -8.910156 63.890625 -10.984375 L 63.890625 -21.046875 C 57.359375 -15.554688 49.425781 -12.8125 40.09375 -12.8125 C 30.570312 -12.8125 22.394531 -16.046875 15.5625 -22.515625 C 8.726562 -28.984375 5.3125 -36.734375 5.3125 -45.765625 C 5.3125 -54.859375 8.679688 -62.625 15.421875 -69.0625 C 22.160156 -75.5 30.382812 -78.71875 40.09375 -78.71875 C 48.507812 -78.71875 56.441406 -75.664062 63.890625 -69.5625 L 63.890625 -87.875 L -0.546875 -87.875 L -0.546875 -95.203125 L 150.671875 -95.203125 L 150.671875 -87.875 L 80.375 -87.875 L 80.375 -71.40625 C 86.351562 -76.28125 94.285156 -78.71875 104.171875 -78.71875 C 113.929688 -78.71875 122.164062 -75.546875 128.875 -69.203125 C 135.59375 -62.859375 138.953125 -55.046875 138.953125 -45.765625 C 138.953125 -36.554688 135.550781 -28.757812 128.75 -22.375 C 121.945312 -16 113.753906 -12.8125 104.171875 -12.8125 C 96.910156 -12.8125 90.195312 -15.253906 84.03125 -20.140625 L 85.859375 -24.71875 C 90.066406 -21.050781 94.953125 -19.21875 100.515625 -19.21875 C 106.554688 -19.21875 111.726562 -21.828125 116.03125 -27.046875 C 120.332031 -32.265625 122.484375 -38.503906 122.484375 -45.765625 C 122.484375 -53.148438 120.359375 -59.421875 116.109375 -64.578125 C 111.867188 -69.734375 106.671875 -72.3125 100.515625 -72.3125 C 91.785156 -72.3125 85.070312 -69.566406 80.375 -64.078125 Z M 80.375 -64.078125 "/></g></g></g><g fill="#ffffff" fill-opacity="1"><g transform="translate(108.494524, 148.719136)"><g><path d="M -7.140625 43.9375 L -23.609375 43.9375 C -34.660156 43.9375 -43.523438 41.90625 -50.203125 37.84375 C -56.890625 33.789062 -60.234375 28.5 -60.234375 21.96875 C -60.234375 15.4375 -56.890625 10.140625 -50.203125 6.078125 C -43.523438 2.023438 -34.660156 0 -23.609375 0 L -7.140625 0 L -7.140625 5.5 L -23.609375 5.5 C -29.285156 5.5 -34.0625 7.097656 -37.9375 10.296875 C -41.8125 13.503906 -43.75 17.394531 -43.75 21.96875 C -43.75 26.425781 -41.78125 30.285156 -37.84375 33.546875 C -33.914062 36.816406 -29.171875 38.453125 -23.609375 38.453125 L -7.140625 38.453125 Z M -7.140625 43.9375 "/></g></g></g></g></g></svg>